<svg width="30" height="30" viewBox="0 0 200 200" fill="none" xmlns="http://www.w3.org/2000/svg">
<path d="M126.667 10.8667V10C126.667 6.31793 123.682 3.33334 120 3.33334H100H80C76.3179 3.33334 73.3333 6.31793 73.3333 10V10.8667C37.5596 22.4263 13.3229 55.7383 13.3333 93.3333H186.667C186.677 55.7383 162.44 22.4263 126.667 10.8667Z" fill="#FFDE17"/>
<path d="M190 93.3333H10C6.31792 93.3333 3.33334 96.3179 3.33334 100V106.667C3.33334 110.349 6.31792 113.333 10 113.333H190C193.682 113.333 196.667 110.349 196.667 106.667V100C196.667 96.3179 193.682 93.3333 190 93.3333Z" fill="#FFDE17"/>
<path d="M180 150C180 142.636 174.03 136.667 166.667 136.667H33.3333C25.9696 136.667 20 142.636 20 150V176.667C20 187.713 28.9542 196.667 40 196.667H60C74.095 196.677 87.1529 189.262 94.3667 177.153C96.2658 174.042 100.327 173.06 103.439 174.959C104.334 175.505 105.087 176.258 105.633 177.153C112.847 189.262 125.905 196.677 140 196.667H160C171.046 196.667 180 187.713 180 176.667V150ZM40 150C36.3179 150 33.3333 152.985 33.3333 156.667C33.3333 152.985 36.3179 150 40 150Z" fill="#E6E7E8"/>
<path d="M180 160H196.667V176.667H180V160Z" fill="#A7A9AC"/>
<path d="M180 150H196.667V160H180V150Z" fill="#A7A9AC"/>
<path d="M3.33334 163.333V180H20V176.667V163.333H3.33334Z" fill="#A7A9AC"/>
<path d="M3.33334 153.333H20V163.333H3.33334V153.333Z" fill="#A7A9AC"/>
<path d="M190 90H189.867C188.602 53.045 164.76 20.665 129.847 8.48667C129.102 3.61917 124.924 0.01875 120 0H80C75.0758 0.01875 70.8983 3.61917 70.1533 8.48667C35.2396 20.665 11.3975 53.045 10.1333 90H10C4.47708 90 0 94.4771 0 100V106.667C0 112.19 4.47708 116.667 10 116.667H190C195.523 116.667 200 112.19 200 106.667V100C200 94.4771 195.523 90 190 90ZM70 15.6367V73.3333C70 75.1742 71.4925 76.6667 73.3333 76.6667C75.1742 76.6667 76.6667 75.1742 76.6667 73.3333V10C76.6667 8.15917 78.1592 6.66667 80 6.66667H96.6667V80C96.6667 81.8408 98.1592 83.3333 100 83.3333C101.841 83.3333 103.333 81.8408 103.333 80V6.66667H120C121.841 6.66667 123.333 8.15917 123.333 10V73.3333C123.333 75.1742 124.826 76.6667 126.667 76.6667C128.507 76.6667 130 75.1742 130 73.3333V15.6367C161.03 27.5275 181.966 56.7925 183.2 90H16.8C18.0337 56.7925 38.97 27.5275 70 15.6367ZM193.333 106.667C193.333 108.507 191.841 110 190 110H10C8.15917 110 6.66667 108.507 6.66667 106.667V100C6.66667 98.1592 8.15917 96.6667 10 96.6667H190C191.841 96.6667 193.333 98.1592 193.333 100V106.667Z" fill="#231F20"/>
<path d="M83.3333 146.667H40C34.4771 146.667 30 151.144 30 156.667V170C30 171.841 31.4925 173.333 33.3333 173.333C35.1742 173.333 36.6667 171.841 36.6667 170V156.667C36.6667 154.826 38.1592 153.333 40 153.333H83.3333C85.1742 153.333 86.6667 151.841 86.6667 150C86.6667 148.159 85.1742 146.667 83.3333 146.667Z" fill="#231F20"/>
<path d="M196.667 146.667H183C181.405 138.912 174.584 133.343 166.667 133.333H33.3333C24.1333 133.344 16.6775 140.8 16.6667 150H3.33333C1.4925 150 0 151.493 0 153.333V180C0 181.841 1.4925 183.333 3.33333 183.333H17.6667C20.6204 193.207 29.6946 199.978 40 200H60C75.2533 199.957 89.3729 191.94 97.2267 178.863C98.1833 177.332 100.201 176.866 101.732 177.822C102.154 178.086 102.51 178.442 102.773 178.863C110.627 191.94 124.747 199.957 140 200H160C171.589 199.986 181.411 191.47 183.067 180H196.667C198.507 180 200 178.508 200 176.667V150C200 148.159 198.507 146.667 196.667 146.667ZM193.333 156.667H183.333V153.333H193.333V156.667ZM16.6667 156.667V160H6.66667V156.667H16.6667ZM6.66667 176.667V166.667H16.6667V176.667H6.66667ZM160 193.333H140C127.09 193.295 115.14 186.51 108.493 175.443C105.655 170.749 99.5475 169.245 94.8533 172.083C93.4779 172.915 92.325 174.068 91.4933 175.443C84.8487 186.506 72.9046 193.291 60 193.333H40C30.8 193.322 23.3442 185.867 23.3333 176.667V150C23.3333 144.477 27.8104 140 33.3333 140H166.667C172.19 140 176.667 144.477 176.667 150V176.667C176.656 185.867 169.2 193.322 160 193.333ZM183.333 173.333V163.333H193.333V173.333H183.333Z" fill="#231F20"/>
<path d="M103.333 146.667H96.6667C94.8258 146.667 93.3333 148.159 93.3333 150C93.3333 151.841 94.8258 153.333 96.6667 153.333H103.333C105.174 153.333 106.667 151.841 106.667 150C106.667 148.159 105.174 146.667 103.333 146.667Z" fill="#231F20"/>
</svg>
